:SAMPLES-PER-SECOND 30
:FULLY-SPECIFIED
:DEGREES
593
root  69.0395 38.3179 -3.02075 -1.85077 28.6177 1.81421
RightUpLeg  6.26355 22.585 -6.40629
RightLeg  24.094 10.4507 4.86424
RightFoot  -22.6672 -0.329841 -1.73233
RightToes  -4.65663e-010 0 -3.6325e-017
Spine  7.92382 -1.58193 2.38529
Spine1  8.36509 -3.02741 5.56263
HEad  -11.1251 40.4101 -9.36197
LeftShoulder1  7.68489 -10.7446 -47.0504
LeftArm  -8.94298 20.5151 -32.0764
LeftForeArm  45.4592 -47.5446 -8.96725
LeftHand  -0.244104 0.0205437 5.32207
RightShoulder  3.69178 6.46784 31.0728
RightArm  -5.52725 -24.6909 32.9466
RightForeArm  23.5783 69.1103 28.7261
RightHand  -0.592739 -1.91147 -19.5989
LeftUpLeg  -18.7785 3.18528 6.28554
LeftLeg  16.4269 -3.89842 -0.979253
LeftFoot  5.02476 0.955171 -6.82036
LeftToes  -5.82109e-011 -4.83791e-012 -1.00937e-011
594
root  70.417 38.3684 -3.07029 -0.551697 24.9351 3.08398
RightUpLeg  4.65739 21.955 -10.2963
RightLeg  25.1639 8.06721 3.88764
RightFoot  -20.7354 0.0797854 2.75743
RightToes  -4.65663e-010 0 -3.6325e-017
Spine  8.80107 -1.31573 -0.136283
Spine1  7.81422 -3.20401 6.72596
HEad  -10.5158 39.6689 -9.27193
LeftShoulder1  7.60634 -10.6113 -47.0063
LeftArm  -8.55514 19.2023 -32.4115
LeftForeArm  43.8482 -46.5555 -8.71493
LeftHand  -0.244104 0.0205437 5.32207
RightShoulder  3.82074 6.76682 31.2518
RightArm  -7.54169 -24.4672 32.6288
RightForeArm  20.4589 67.3001 26.1099
RightHand  -0.664511 -1.58058 -20.0941
LeftUpLeg  -19.4518 8.92629 3.24196
LeftLeg  19.0988 -5.48743 -1.77472
LeftFoot  3.86972 0.680918 -5.26632
LeftToes  -5.82109e-011 -4.83791e-012 -1.00937e-011
595
root  71.7286 38.5583 -3.14289 0.441711 20.5426 4.32971
RightUpLeg  1.91858 18.6879 -13.9013
RightLeg  27.654 2.48056 1.15873
RightFoot  -17.1561 0.138613 4.84765
RightToes  -4.65663e-010 0 -3.6325e-017
Spine  9.59171 -0.927344 -1.41786
Spine1  7.66393 -2.74031 6.04237
HEad  -10.28 37.3065 -8.74524
LeftShoulder1  7.66543 -10.8019 -46.7374
LeftArm  -8.03762 18.1209 -31.7311
LeftForeArm  42.6853 -46.276 -8.6924
LeftHand  -0.244104 0.0205437 5.32207
RightShoulder  3.83724 6.84858 31.1154
RightArm  -10.4861 -24.0744 34.5695
RightForeArm  18.2804 65.329 23.6025
RightHand  -0.807987 -0.891232 -20.7099
LeftUpLeg  -18.7854 15.3704 0.166143
LeftLeg  19.4934 -6.17073 -2.10252
LeftFoot  1.79987 0.463146 -4.11343
LeftToes  -5.82109e-011 -4.83791e-012 -1.00937e-011
596
root  73.0626 38.8518 -3.22161 0.820374 15.2981 4.84595
RightUpLeg  -1.13071 13.3555 -15.9785
RightLeg  30.7347 -4.94792 -3.41555
RightFoot  -13.3396 -0.0269563 3.29553
RightToes  -4.65663e-010 0 -3.6325e-017
Spine  10.2707 -0.683874 -0.159169
Spine1  7.59725 -1.63719 3.17019
HEad  -9.35296 34.5115 -7.61964
LeftShoulder1  7.69359 -11.053 -46.0837
LeftArm  -8.09935 17.8193 -30.6736
LeftForeArm  42.9994 -47.0285 -8.94301
LeftHand  -0.244104 0.0205437 5.32207
RightShoulder  3.85055 6.88584 31.1106
RightArm  -12.4566 -23.6443 37.13
RightForeArm  16.3375 64.0544 22.3006
RightHand  -1.08565 0.339972 -21.8935
LeftUpLeg  -16.8182 18.6539 -1.67741
LeftLeg  17.641 -3.60222 -1.64572
LeftFoot  0.993735 0.246802 -2.35664
LeftToes  -5.82109e-011 -4.83791e-012 -1.00937e-011
597
root  74.3416 39.1751 -3.27295 1.14178 9.7052 4.9209
RightUpLeg  -4.22155 6.94664 -16.4645
RightLeg  34.0839 -10.7994 -8.00217
RightFoot  -10.9048 -0.0815076 0.87046
RightToes  -4.65663e-010 0 -3.6325e-017
Spine  10.5765 -0.516811 1.29187
Spine1  7.30023 -0.648798 0.741388
HEad  -7.97553 31.9363 -7.06521
LeftShoulder1  7.58614 -11.0248 -45.5096
LeftArm  -9.15207 18.4243 -29.6746
LeftForeArm  44.0462 -48.4006 -9.3827
LeftHand  -0.244104 0.0205437 5.32207
RightShoulder  3.89904 6.97689 31.2528
RightArm  -11.5227 -22.801 38.6403
RightForeArm  14.2079 63.5345 21.9821
RightHand  -1.29822 1.20991 -22.7879
LeftUpLeg  -14.5213 17.0411 -1.93199
LeftLeg  14.783 3.51154 -1.53303
LeftFoot  1.22492 0.0359406 -0.394397
LeftToes  -5.82109e-011 -4.83791e-012 -1.00937e-011
598
root  75.4645 39.4508 -3.2756 1.66827 4.19104 5.07947
RightUpLeg  -7.09849 0.698869 -15.7329
RightLeg  37.4083 -12.7764 -10.5164
RightFoot  -9.90621 -0.0790473 0.84659
RightToes  -4.65663e-010 0 -3.6325e-017
Spine  10.098 -0.205264 0.950058
Spine1  7.19947 -0.160408 0.231337
HEad  -6.73009 29.6852 -6.89642
LeftShoulder1  7.40866 -10.7802 -45.1933
LeftArm  -10.8463 19.5623 -28.8481
LeftForeArm  44.1415 -49.5033 -9.80538
LeftHand  -0.244104 0.0205437 5.32207
RightShoulder  3.91623 6.98655 31.3839
RightArm  -8.14828 -21.3058 39.075
RightForeArm  14.155 63.335 21.7686
RightHand  -1.13216 0.599361 -21.7895
LeftUpLeg  -12.5778 13.8182 -1.78541
LeftLeg  11.7562 12.3215 -2.45421
LeftFoot  1.23371 -0.103064 0.870002
LeftToes  -5.82109e-011 -4.83791e-012 -1.00937e-011
599
root  76.4508 39.6191 -3.24229 2.22626 -1.33725 5.45898
RightUpLeg  -9.47732 -4.61797 -14.2117
RightLeg  40.0438 -11.1704 -10.1492
RightFoot  -9.24865 -0.100056 2.05971
RightToes  -4.65663e-010 0 -3.6325e-017
Spine  8.89919 0.224249 -0.425276
Spine1  7.53776 0.185961 0.384898
HEad  -5.66069 28.8936 -6.60399
LeftShoulder1  7.28 -10.617 -44.9097
LeftArm  -12.5848 20.8447 -28.1386
LeftForeArm  43.0628 -49.7104 -9.96562
LeftHand  -0.244104 0.0205437 5.32207
RightShoulder  3.82834 6.76896 31.3164
RightArm  -4.22759 -19.6198 39.5647
RightForeArm  18.3027 63.2765 21.1958
RightHand  -0.710495 -0.9875 -18.5702
LeftUpLeg  -11.0377 10.0812 -1.78428
LeftLeg  8.71533 21.7913 -4.14965
LeftFoot  0.861082 -0.180255 1.63819
LeftToes  -5.82109e-011 -4.83791e-012 -1.00937e-011
600
root  77.3803 39.6833 -3.19745 2.26544 -6.78214 5.67932
RightUpLeg  -10.4191 -9.64651 -12.1931
RightLeg  41.3223 -8.28843 -8.02458
RightFoot  -8.78031 -0.111634 2.33376
RightToes  -4.65663e-010 0 -3.6325e-017
Spine  8.03287 0.467291 -1.17965
Spine1  7.77709 0.550272 -0.144394
HEad  -3.81883 27.5685 -5.28551
LeftShoulder1  7.22203 -10.5858 -44.6392
LeftArm  -13.9139 22.1042 -27.368
LeftForeArm  41.9841 -48.9363 -9.73335
LeftHand  -0.244104 0.0205437 5.32207
RightShoulder  3.67305 6.45021 30.9462
RightArm  -0.697474 -18.361 40.6944
RightForeArm  24.4954 63.2773 20.4291
RightHand  -0.489831 -1.63636 -15.1502
LeftUpLeg  -9.89671 6.90152 -2.08048
LeftLeg  6.50385 30.2642 -5.50003
LeftFoot  0.394636 -0.254953 2.45765
LeftToes  -5.82109e-011 -4.83791e-012 -1.00937e-011
601
root  78.2766 39.7232 -3.1324 1.80713 -11.7199 5.68884
RightUpLeg  -9.47589 -15.8343 -10.2388
RightLeg  41.1586 -7.1479 -6.93095
RightFoot  -9.12519 -0.105967 2.29538
RightToes  -4.65663e-010 0 -3.6325e-017
Spine  7.68371 0.368522 -1.3403
Spine1  7.68489 0.625888 -0.803725
HEad  -2.30448 25.8586 -4.84612
LeftShoulder1  7.1705 -10.527 -44.4998
LeftArm  -14.5418 23.2355 -26.5049
LeftForeArm  41.4294 -47.2494 -9.12973
LeftHand  -0.244104 0.0205437 5.32207
RightShoulder  3.61377 6.37724 30.6163
RightArm  2.43889 -17.6751 41.9531
RightForeArm  28.0174 63.1213 19.8334
RightHand  -0.530035 -0.993527 -13.9281
LeftUpLeg  -8.86982 5.65962 -2.71337
LeftLeg  5.01802 36.1836 -6.30473
LeftFoot  -0.0830971 -0.341336 3.46781
LeftToes  -5.82109e-011 -4.83791e-012 -1.00937e-011
602
root  79.1054 39.7657 -3.03768 1.09943 -16.0404 5.80676
RightUpLeg  -6.98969 -23.8024 -9.00071
RightLeg  39.7568 -8.90444 -8.11108
RightFoot  -10.2615 -0.0919386 2.27005
RightToes  -4.65663e-010 0 -3.6325e-017
Spine  7.32319 0.0612856 -1.58881
Spine1  7.57127 0.38207 -1.01739
HEad  -1.43031 25.0224 -5.25009
LeftShoulder1  7.10236 -10.4227 -44.4018
LeftArm  -14.385 24.0788 -25.767
LeftForeArm  40.7673 -44.6267 -8.25403
LeftHand  -0.244104 0.0205437 5.32207
RightShoulder  3.76173 6.70237 30.9004
RightArm  4.79822 -17.5715 42.6448
RightForeArm  27.7063 62.7817 19.5354
RightHand  -0.639835 -0.33855 -14.6999
LeftUpLeg  -7.59342 5.32866 -3.51506
LeftLeg  3.09515 40.7389 -7.58718
LeftFoot  -0.636753 -0.429056 4.62004
LeftToes  -5.82109e-011 -4.83791e-012 -1.00937e-011
603
root  79.8561 39.7611 -2.94405 0.162476 -20.2972 6.09033
RightUpLeg  -3.143 -32.6783 -9.23774
RightLeg  37.0097 -10.7895 -8.88823
RightFoot  -11.1742 -0.077649 1.80274
RightToes  -4.65663e-010 0 -3.6325e-017
Spine  6.96378 -0.116685 -1.68347
Spine1  7.54469 0.316867 -1.34417
HEad  -0.400928 25.3813 -4.85287
LeftShoulder1  7.05679 -10.3678 -44.2859
LeftArm  -13.721 24.5324 -25.3209
LeftForeArm  39.6261 -41.2074 -7.24362
LeftHand  -0.244104 0.0205437 5.32207
RightShoulder  4.01016 7.14067 31.7281
RightArm  5.9406 -18.0743 42.7814
RightForeArm  26.1722 62.3956 19.3478
RightHand  -0.673795 -0.387891 -15.6404
LeftUpLeg  -6.33436 5.12454 -4.32184
LeftLeg  1.10735 45.0884 -9.20378
LeftFoot  -1.35446 -0.491666 5.71672
LeftToes  -5.82109e-011 -4.83791e-012 -1.00937e-011
604
root  80.5539 39.7262 -2.87762 -0.84314 -25.2064 6.29565
RightUpLeg  2.15416 -40.9003 -11.4132
RightLeg  32.4144 -9.65314 -6.87561
RightFoot  -10.8417 -0.0885403 2.6905
RightToes  -4.65663e-010 0 -3.6325e-017
Spine  6.70005 0.0722603 -1.06076
Spine1  7.50662 0.79566 -2.15243
HEad  0.810067 25.7783 -4.04961
LeftShoulder1  7.05421 -10.3553 -44.3105
LeftArm  -13.0624 24.7285 -25.1447
LeftForeArm  38.3956 -37.4625 -6.25294
LeftHand  -0.244104 0.0205437 5.32207
RightShoulder  4.16594 7.35027 32.4401
RightArm  6.41631 -18.7221 42.8156
RightForeArm  25.093 61.6759 18.8105
RightHand  -0.579759 -1.06492 -15.4731
LeftUpLeg  -5.43303 5.23041 -4.80416
LeftLeg  -0.428946 49.7392 -10.7692
LeftFoot  -2.11892 -0.521004 6.60911
LeftToes  -5.82109e-011 -4.83791e-012 -1.00937e-011
605
root  81.2239 39.6886 -2.86199 -1.69183 -31.108 6.72009
RightUpLeg  7.87425 -46.8776 -14.2797
RightLeg  25.7079 -8.17712 -4.41951
RightFoot  -10.7431 -0.0977213 5.77749
RightToes  -4.65663e-010 0 -3.6325e-017
Spine  6.2122 0.635569 -0.13137
Spine1  7.48604 1.74558 -3.25615
HEad  1.22833 25.4293 -4.34045
LeftShoulder1  7.06354 -10.3158 -44.5042
LeftArm  -12.6622 24.9522 -25.243
LeftForeArm  37.2286 -33.9048 -5.4029
LeftHand  -0.244104 0.0205437 5.32207
RightShoulder  4.19318 7.33003 32.7616
RightArm  7.15149 -18.7734 42.9955
RightForeArm  23.9033 60.1698 17.6585
RightHand  -0.447763 -1.82422 -14.4134
LeftUpLeg  -5.20382 5.59558 -5.12273
LeftLeg  -1.96955 55.1745 -12.6177
LeftFoot  -2.79055 -0.528142 7.27752
LeftToes  -5.82109e-011 -4.83791e-012 -1.00937e-011
